# xmcd CD database file
#
# Track frame offsets:
#	150
#	18775
#	35913
#	53355
#	69493
#	86163
#	100518
#	112688
#	127075
#	141423
#	159863
#
# Disc length: 2350 seconds
#
# Revision: 1
# Processed by: cddbd v1.5.1PL2 Copyright (c) Steve Scherf et al.
# Submitted via: CDex 1.51
#
DISCID=85092c0b
DTITLE=Y'E-Y'E - Two Brains for Feet
DYEAR=2003
DGENRE=Pop
TTITLE0=y'e-y'e Style
TTITLE1=Eurostar
TTITLE2=Bachelor Party
TTITLE3=The End of the Beginning
TTITLE4=Burt Taylor
TTITLE5=A Summer in Saint-Val駻y
TTITLE6=We've Climbed Mountains
TTITLE7=Ma Tendre Amie
TTITLE8=Strong Enough
TTITLE9=Dancing Stubbing
TTITLE10=Extra-Ball
EXTD=YEAR: 2003
EXTT0=
EXTT1=Featuring Shivika
EXTT2=
EXTT3=Featuring Tahiti 80
EXTT4=
EXTT5=
EXTT6=Featuring Noemie
EXTT7=
EXTT8=Featuring Mouloud
EXTT9=
EXTT10=
PLAYORDER=
